<svg xmlns="http://www.w3.org/2000/svg" xmlns:xlink="http://www.w3.org/1999/xlink" viewBox="0 0 272.16 282.29"><defs><style>.cls-1{fill:none;}.cls-2{fill:#d8eaff;}.cls-3{clip-path:url(#clip-path);}.cls-4{fill:#81bd00;}.cls-5{fill:#fff2bd;}.cls-6{fill:#91d121;}.cls-7{fill:#90707e;}.cls-8{fill:#f5bac4;}.cls-9{fill:#86ac10;}.cls-10{fill:#878484;}.cls-11{fill:#686464;}.cls-12{fill:#cbcaca;}.cls-13{fill:#a2a0a0;}.cls-14{fill:#bab9b9;}</style><clipPath id="clip-path" transform="translate(-1.2 -5.15)"><path class="cls-1" d="M271.27,81.94c9.59,28-2.59,74.54-20.78,97.18-12.14,15.11-44.63,38.5-60.93,48-19.36,11.33-40.64,18-61.41,18.46-36.78.74-74-21.71-102.92-48.39C-3,197.78.1,152.36.1,122.82.1,58.37,76.86,10.59,140.76,2.16,225-8.95,251.27,23.52,271.27,81.94Z"/></clipPath></defs><title>Crocode-logo</title><g id="Layer_2" data-name="Layer 2"><g id="Capa_1" data-name="Capa 1"><circle class="cls-2" cx="126.95" cy="123.77" r="116.7"/><g class="cls-3"><path class="cls-4" d="M118.38,201c1.9,5.65,8.29,8.92,14.25,8.71s11.49-3.25,16.22-6.89a46.94,46.94,0,0,0,9.2-9.21c3.59-4.87,5.95-10.51,8.27-16.1,2.2-5.29,4.44-10.71,4.76-16.44,1,4.49,5.41,8.45,10.16,7.4,3.4-.76,6-4.58,4.89-7.88a7.67,7.67,0,1,0,15.05-1.81c2.6,5,10.81,4.89,14.26.4s2.46-11.31-1.09-15.72-9.08-6.78-14.59-8.1c-15.27-3.64-31.77-.21-45.29,7.79s-24.17,20.28-31.8,34A45.18,45.18,0,0,0,118,189.69c-1.22,5.17-1.69,11.56,2.48,14.84" transform="translate(-1.2 -5.15)"/><g id="_Group_" data-name="&lt;Group&gt;"><path id="_Path_" data-name="&lt;Path&gt;" class="cls-5" d="M118.17,86.74S121,97.9,126.84,98.6s9.84-14,9.84-14Z" transform="translate(-1.2 -5.15)"/><path id="_Path_2" data-name="&lt;Path&gt;" class="cls-5" d="M140.19,84.55s8,12.18,13.36,11.24,7-16.16,7-16.16Z" transform="translate(-1.2 -5.15)"/><path id="_Path_3" data-name="&lt;Path&gt;" class="cls-5" d="M165,79.63s8.43,10,14.29,7.11,3.28-15.45,3.28-15.45Z" transform="translate(-1.2 -5.15)"/><path id="_Path_4" data-name="&lt;Path&gt;" class="cls-5" d="M187.75,68.85s7.5,9.61,14.52,7.73,4.92-18.5,4.92-18.5Z" transform="translate(-1.2 -5.15)"/><path id="_Path_5" data-name="&lt;Path&gt;" class="cls-5" d="M207.45,58.93s7.5,10.08,14.29,8,2.11-20.85,2.11-20.85Z" transform="translate(-1.2 -5.15)"/><path id="_Path_6" data-name="&lt;Path&gt;" class="cls-5" d="M220,48.57s8.91,9.84,15.23,7-2.58-20.38-2.58-20.38Z" transform="translate(-1.2 -5.15)"/><path id="_Path_7" data-name="&lt;Path&gt;" class="cls-5" d="M150.38,108s2.46-7.44,5.28-9.34S165,107,165,107Z" transform="translate(-1.2 -5.15)"/><path id="_Path_8" data-name="&lt;Path&gt;" class="cls-5" d="M171.59,106.57s2.81-15.7,7.26-16.87,15,13.48,15,13.48Z" transform="translate(-1.2 -5.15)"/><path id="_Path_9" data-name="&lt;Path&gt;" class="cls-5" d="M129.51,116.91s2.81-15.69,7.26-16.86,15,13.48,15,13.48Z" transform="translate(-1.2 -5.15)"/><path id="_Path_10" data-name="&lt;Path&gt;" class="cls-5" d="M197.62,100s-1.91-13.12,2.08-16.63,15,8.21,15,8.21Z" transform="translate(-1.2 -5.15)"/><path id="_Path_11" data-name="&lt;Path&gt;" class="cls-5" d="M217.5,91.59s-2.64-17.15,1-20.3S236,76.83,236,76.83Z" transform="translate(-1.2 -5.15)"/></g><path class="cls-6" d="M240.35,80.5a50.53,50.53,0,0,1-2.55,14.12c-3.08,8.58-8.88,15.15-16,20.39-11,8-25.08,12.94-37.34,17.22a281.58,281.58,0,0,1-59.34,13.23,40.52,40.52,0,0,1-7.9.52,22.29,22.29,0,0,1,1.65,1.87c6.93,8.62,7.59,20.29,8.86,31a168.46,168.46,0,0,0,46.09,96.56,6.43,6.43,0,0,1,2,2.94c.7,3.2-3.32,5.19-6.52,5.95-6,1.41-12,2.82-18.08,3.14-16.44.81-32.09-6.41-47-13.46-6.67-3.18-13.37-6.36-19.94-9.76-10.55-5.47-20.77-11.5-30-18.94A122.42,122.42,0,0,1,40.7,232.51c-4-4.4-6.88-9.12-12.22-11.85-10.8-5.53-11.18-18.56-3.43-27.43-6.05,2-12.79-3.49-13.58-9.83s3-12.54,7.94-16.56c-4,2.46-9.59,1.26-12.7-2.22s-3.8-8.75-2.31-13.19A20,20,0,0,1,13.3,141c-4.16,2-9.59-.62-11.35-4.88s-.26-9.42,3-12.73c2.2-2.29,5-3.41,7.74-4.74-3.3-4.78-8.25-7.6-7-14.58,1.24-6.81,9.18-11.68,15.67-9.29-5.76-2.09-8.4-10-5-15.16s13.09-9.56,17.27-5.09c-1.37-6.24-1-15.81,4.74-19,3.47-1.92,15.19-2.48,16.34,3.16-.25-1.52-3.26-21.45,9.47-26.91,13.12-5.62,33.71,13.11,33.71,13.11s.63-31.84,11.24-33.09c23.24-2.73,29.21,34.24,29.26,34.54.51,3.16,28.78-6.26,31.22-7.12,1.79-.62,3.56-1.27,5.29-2.06,4.85-2.22,9.15-5.44,13.41-8.65-3.36,2.53-6.91-4.42-7.38-6.66-1-4.57,2.23-9.94,6.9-10.3,5.33-.41,9.09,5,11.66,9.65-.92-3.73-1.83-7.75-.46-11.33S205,3.76,208.16,6a8,8,0,0,1,2.71,4.75,25.62,25.62,0,0,1,.42,10.85c6.74-1.31,14.81-2.22,19.45,2.83a13.42,13.42,0,0,1,2.78,5.11C238,43.63,227.31,50.48,218,57.8,206.15,67.09,193,75,178.61,79.62c-46.38,15-77.3,9.38-77.3,9.38s8.42,13.59,49.65,15.46c32.38,1.47,58.34-11.21,83.54-30.11a4.91,4.91,0,0,1,1.76-1c1.56-.39,3.15.85,3.75,2.35A10.76,10.76,0,0,1,240.35,80.5Z" transform="translate(-1.2 -5.15)"/><ellipse class="cls-7" cx="79.73" cy="61.61" rx="10.55" ry="14.98" transform="translate(-11.79 11.79) rotate(-11.38)"/><ellipse class="cls-7" cx="119.69" cy="46.63" rx="10.55" ry="14.98" transform="translate(-8.04 19.37) rotate(-11.38)"/><ellipse id="_Path_12" data-name="&lt;Path&gt;" class="cls-8" cx="69.73" cy="90.29" rx="12.21" ry="6.98" transform="translate(-18.3 11.14) rotate(-11.88)"/><path class="cls-9" d="M169.5,285.29c-5.75,1.44-12,1.77-18.34,2.1-16.44.81-32.09-6.41-47-13.46-6.67-3.18-13.37-6.36-19.94-9.76,0-.15,0-.3,0-.45a188.06,188.06,0,0,0-6.18-56.43c-2-7.68-4.58-15.28-5.57-23.17-1.87-15,3.07-34.4,6.87-49-1.65,6.35,23.33,10.72,27,10.65,4.31-.08,8-2.3,12.25-.92,5.72,1.83,9.83,8.93,12.6,13.79l25.13,44.14c8.77,15.41,19.53,32.33,36.89,36,3,.63,1.8,15.57,1.44,17.71a40.17,40.17,0,0,1-8.35,18.45C181.67,280.74,175.88,283.69,169.5,285.29Z" transform="translate(-1.2 -5.15)"/><polygon class="cls-10" points="190.17 213.18 135.64 190.53 199.64 147.14 245.53 165.25 190.17 213.18"/><polygon class="cls-11" points="197.84 204.02 166.68 191.08 203.25 166.29 229.47 176.63 197.84 204.02"/><polygon class="cls-12" points="193.99 215.13 212.72 142.59 272.16 99.06 253.44 166.15 193.99 215.13"/><polygon class="cls-13" points="193.99 215.13 212.72 142.59 208.99 140.8 190.17 213.18 193.99 215.13"/><polygon class="cls-14" points="272.14 99.08 212.72 142.59 208.99 140.8 268.32 97.12 272.14 99.08"/><polygon class="cls-13" points="135.64 190.53 135.64 193.96 189.19 217.49 190.13 213.12 135.64 190.53"/><polygon class="cls-12" points="189.19 217.49 192.59 214.43 190.13 213.12 189.19 217.49"/><path id="_Path_13" data-name="&lt;Path&gt;" class="cls-6" d="M76.43,166.48s7.81,22.21,29.58,30.28c8.68,3.22,18.75,5.94,27.12.56a32.16,32.16,0,0,0,9-8.92c3.17-5.2,1.59-11.66,4.7-17.24,2.78-5,8.44-8.65,14.06-7.73a3.9,3.9,0,0,1,2.21,1,4.39,4.39,0,0,1,.95,2.18,36.61,36.61,0,0,1,.57,12.26A14.37,14.37,0,0,1,192.41,184a6.16,6.16,0,0,1-.62,3c-.93,1.72-2.93,2.5-4.7,3.33a28.59,28.59,0,0,0-11.49,9.87c3.4-3,9.15-1.69,12.14,1.74s3.81,8.22,4,12.77a13.59,13.59,0,0,1-1,6.55c-1,2-3.15,3.58-5.36,3.22-1.89-.3-3.28-1.85-4.76-3.07a16.39,16.39,0,0,0-16.81-2.27c-2.92,16.89-16,37.21-32,44.11-24.24,10.46-75.22-5.5-81.85-61.32,0,0-3.47-24.81,7.5-36.62S73.68,160.57,76.43,166.48Z" transform="translate(-1.2 -5.15)"/></g></g></g></svg>